# xmcd
#
# Track frame offsets:
#	150
#	19735
#	38375
#	64539
#	81877
#	101636
#	124299
#	144132
#	161929
#	185924
#	208949
#	228692
#	254765
#	269375
#	293683
#
# Disc length: 4157 seconds
#
# Revision: 0
# Processed by: cddbd v1.5.2PL0 Copyright (c) Steve Scherf et al.
# Submitted via: EasyCDDAExtractor 16.0.9.1
#
DISCID=e0103b0f
DTITLE=Nguyen Khang - Mot lan tien chan nguoi
DYEAR=1900
DGENRE=
TTITLE0=Co thay khong em
TTITLE1=Hanh phuc tinh doi
TTITLE2=Tinh mai ngu ngo
TTITLE3=Mot mua dong khong co em
TTITLE4=Vi tinh con day
TTITLE5=Mot lan tien chan nguoi
TTITLE6=Noi buon o lai
TTITLE7=Tinh em nhu canh hoa 
TTITLE8=Chuyen tinh nguoi con gai
TTITLE9=Yeu la gi
TTITLE10=Vi tinh con day
TTITLE11=Tinh mai ngu ngo
TTITLE12=Khi tuyet roi - Tomble le Neige
TTITLE13=Chiec la roi mau xanh
TTITLE14=Khi thanh pho vang anh
EXTD=
EXTT0=
EXTT1=
EXTT2=
EXTT3=
EXTT4=
EXTT5=
EXTT6=
EXTT7=
EXTT8=
EXTT9=
EXTT10=
EXTT11=
EXTT12=
EXTT13=
EXTT14=
PLAYORDER=
